<svg width="113" height="19" viewBox="0 0 113 19" fill="none" xmlns="http://www.w3.org/2000/svg">
<g clip-path="url(#clip0_2_282)">
<path d="M9.43776 0.990493C9.76784 0.206497 10.892 0.206498 11.2221 0.990495L13.1702 5.61778C13.3095 5.9483 13.6241 6.17413 13.9853 6.20273L19.0419 6.60323C19.8986 6.67108 20.246 7.72734 19.5933 8.27973L15.7407 11.54C15.4655 11.7729 15.3453 12.1383 15.4293 12.4865L16.6064 17.3613C16.8058 18.1872 15.8963 18.8401 15.1628 18.3975L10.8336 15.7851C10.5244 15.5985 10.1355 15.5985 9.82627 15.7851L5.49704 18.3975C4.76354 18.8401 3.85404 18.1872 4.05346 17.3613L5.23051 12.4865C5.31458 12.1383 5.19441 11.7729 4.91923 11.54L1.06656 8.27973C0.413812 7.72734 0.761213 6.67108 1.61796 6.60323L6.67465 6.20273C7.03584 6.17413 7.35046 5.9483 7.48961 5.61778L9.43776 0.990493Z" fill="#42A8DF"/>
<path d="M32.4837 0.990493C32.8137 0.206497 33.9379 0.206498 34.268 0.990495L36.2161 5.61778C36.3554 5.9483 36.67 6.17413 37.0312 6.20273L42.0878 6.60323C42.9445 6.67108 43.2919 7.72734 42.6392 8.27973L38.7866 11.54C38.5114 11.7729 38.3912 12.1383 38.4752 12.4865L39.6523 17.3613C39.8517 18.1872 38.9422 18.8401 38.2087 18.3975L33.8795 15.7851C33.5703 15.5985 33.1814 15.5985 32.8722 15.7851L28.5429 18.3975C27.8094 18.8401 26.8999 18.1872 27.0994 17.3613L28.2764 12.4865C28.3605 12.1383 28.2403 11.7729 27.9651 11.54L24.1125 8.27973C23.4597 7.72734 23.8071 6.67108 24.6639 6.60323L29.7205 6.20273C30.0817 6.17413 30.3964 5.9483 30.5355 5.61778L32.4837 0.990493Z" fill="#42A8DF"/>
<path d="M55.5291 0.990493C55.8591 0.206497 56.9834 0.206498 57.3134 0.990495L59.2615 5.61778C59.4008 5.9483 59.7154 6.17413 60.0766 6.20273L65.1332 6.60323C65.9899 6.67108 66.3373 7.72734 65.6846 8.27973L61.832 11.54C61.5568 11.7729 61.4366 12.1383 61.5207 12.4865L62.6977 17.3613C62.8971 18.1872 61.9877 18.8401 61.2541 18.3975L56.9249 15.7851C56.6157 15.5985 56.2268 15.5985 55.9176 15.7851L51.5883 18.3975C50.8548 18.8401 49.9453 18.1872 50.1448 17.3613L51.3218 12.4865C51.4059 12.1383 51.2857 11.7729 51.0105 11.54L47.1579 8.27973C46.5051 7.72734 46.8525 6.67108 47.7093 6.60323L52.766 6.20273C53.1271 6.17413 53.4418 5.9483 53.5809 5.61778L55.5291 0.990493Z" fill="#42A8DF"/>
<path d="M78.575 0.990737C78.905 0.206741 80.0293 0.206742 80.3593 0.990739L82.3074 5.61803C82.4467 5.94854 82.7613 6.17437 83.1225 6.20297L88.1791 6.60347C89.0358 6.67133 89.3832 7.72758 88.7305 8.27997L84.8779 11.5402C84.6027 11.7732 84.4825 12.1386 84.5666 12.4867L85.7436 17.3615C85.943 18.1875 85.0336 18.8403 84.3 18.3977L79.9708 15.7854C79.6616 15.5988 79.2727 15.5988 78.9635 15.7854L74.6342 18.3977C73.9007 18.8403 72.9912 18.1875 73.1907 17.3615L74.3677 12.4867C74.4518 12.1386 74.3316 11.7732 74.0564 11.5402L70.2038 8.27997C69.551 7.72758 69.8984 6.67133 70.7552 6.60347L75.8119 6.20297C76.173 6.17437 76.4877 5.94854 76.6268 5.61803L78.575 0.990737Z" fill="#42A8DF"/>
<path d="M101.62 0.990493C101.95 0.206497 103.075 0.206498 103.405 0.990495L105.353 5.61778C105.492 5.9483 105.807 6.17413 106.168 6.20273L111.224 6.60323C112.081 6.67108 112.429 7.72734 111.776 8.27973L107.923 11.54C107.648 11.7729 107.528 12.1383 107.612 12.4865L108.789 17.3613C108.988 18.1872 108.079 18.8401 107.345 18.3975L103.016 15.7851C102.707 15.5985 102.318 15.5985 102.009 15.7851L97.6797 18.3975C96.9462 18.8401 96.0367 18.1872 96.2361 17.3613L97.4131 12.4865C97.4972 12.1383 97.377 11.7729 97.1018 11.54L93.2492 8.27973C92.5964 7.72734 92.9438 6.67108 93.8006 6.60323L98.8573 6.20273C99.2185 6.17413 99.5331 5.9483 99.6722 5.61778L101.62 0.990493Z" fill="#42A8DF"/>
</g>
<defs>
<clipPath id="clip0_2_282">
<rect width="111.388" height="18.1379" fill="white" transform="translate(0.727539 0.402496)"/>
</clipPath>
</defs>
</svg>
