<svg width="42" height="42" viewBox="0 0 42 42" fill="none" xmlns="http://www.w3.org/2000/svg">
<rect width="42" height="42" rx="21" fill="white" fill-opacity="0.2"/>
<path d="M12.1333 30.8799C14.48 33.0132 17.5867 34.2932 21 34.2932C28.3333 34.2932 34.2933 28.3332 34.2933 20.9999C34.2933 13.6665 28.3333 7.70655 21 7.70655C17.5867 7.70655 14.48 8.98655 12.1333 11.1199C9.41334 13.5332 7.70667 17.0799 7.70667 20.9999C7.70667 24.9199 9.41334 28.4665 12.1333 30.8799ZM21.04 15.1465C21.0667 12.9465 22.7067 12.4132 24.24 13.0265C27.4 14.2932 29.6267 17.3865 29.6267 20.9999C29.6267 24.6132 27.4 27.7065 24.24 28.9865C22.7067 29.5999 21.0667 29.0532 21.04 26.8665V15.1465Z" fill="white"/>
</svg>
